<svg xmlns="http://www.w3.org/2000/svg" viewBox="0 0 512 512" fill="none">
  <defs>
    <linearGradient id="bg" x1="0" y1="0" x2="1" y2="1">
      <stop offset="0%" stop-color="#0f172a"/>
      <stop offset="100%" stop-color="#020617"/>
    </linearGradient>
    <linearGradient id="accent" x1="0" y1="0" x2="1" y2="1">
      <stop offset="0%" stop-color="#3b82f6"/>
      <stop offset="100%" stop-color="#2563eb"/>
    </linearGradient>
  </defs>
  <rect width="512" height="512" rx="80" fill="url(#bg)" stroke="#1e293b" stroke-width="8"/>
  <!-- Grass block base -->
  <rect x="116" y="316" width="280" height="80" rx="12" fill="#1e293b" stroke="#334155" stroke-width="4"/>
  <!-- Grass top -->
  <rect x="116" y="306" width="280" height="20" rx="6" fill="url(#accent)"/>
  <!-- Grass detail lines -->
  <rect x="140" y="310" width="30" height="4" rx="2" fill="#60a5fa" opacity="0.5"/>
  <rect x="200" y="312" width="20" height="3" rx="1.5" fill="#60a5fa" opacity="0.4"/>
  <rect x="310" y="310" width="25" height="4" rx="2" fill="#60a5fa" opacity="0.5"/>
  <!-- Crafting table surface -->
  <rect x="176" y="170" width="160" height="136" rx="8" fill="#1e293b" stroke="#334155" stroke-width="3"/>
  <!-- Crafting grid -->
  <rect x="194" y="188" width="124" height="100" rx="4" fill="#0f172a" stroke="#334155" stroke-width="2"/>
  <!-- Grid cells -->
  <rect x="200" y="194" width="34" height="34" rx="2" fill="#1e293b" stroke="#334155" stroke-width="1.5"/>
  <rect x="240" y="194" width="34" height="34" rx="2" fill="#1e293b" stroke="#334155" stroke-width="1.5"/>
  <rect x="280" y="194" width="34" height="34" rx="2" fill="#1e293b" stroke="#334155" stroke-width="1.5"/>
  <rect x="200" y="234" width="34" height="34" rx="2" fill="#1e293b" stroke="#334155" stroke-width="1.5"/>
  <rect x="240" y="234" width="34" height="34" rx="2" fill="#1e293b" stroke="#334155" stroke-width="1.5"/>
  <rect x="280" y="234" width="34" height="34" rx="2" fill="#1e293b" stroke="#334155" stroke-width="1.5"/>
  <!-- Grid items -->
  <rect x="210" y="204" width="14" height="14" rx="2" fill="#3b82f6" opacity="0.4"/>
  <rect x="248" y="238" width="14" height="14" rx="2" fill="#60a5fa" opacity="0.3"/>
  <rect x="286" y="202" width="14" height="14" rx="2" fill="#3b82f6" opacity="0.35"/>
  <!-- Center dot -->
  <circle cx="257" cy="251" r="4" fill="#60a5fa" opacity="0.5"/>
  <!-- Server icon -->
  <rect x="196" y="420" width="120" height="40" rx="6" fill="#3b82f6" opacity="0.15"/>
  <rect x="208" y="428" width="16" height="4" rx="2" fill="#3b82f6" opacity="0.6"/>
  <rect x="232" y="428" width="16" height="4" rx="2" fill="#3b82f6" opacity="0.4"/>
  <rect x="256" y="428" width="16" height="4" rx="2" fill="#3b82f6" opacity="0.6"/>
  <rect x="280" y="428" width="16" height="4" rx="2" fill="#3b82f6" opacity="0.4"/>
  <rect x="208" y="438" width="16" height="4" rx="2" fill="#3b82f6" opacity="0.4"/>
  <rect x="232" y="438" width="16" height="4" rx="2" fill="#3b82f6" opacity="0.6"/>
  <rect x="256" y="438" width="16" height="4" rx="2" fill="#3b82f6" opacity="0.4"/>
  <rect x="280" y="438" width="16" height="4" rx="2" fill="#3b82f6" opacity="0.6"/>
  <!-- Piston -->
  <rect x="146" y="196" width="30" height="50" rx="4" fill="#2563eb" opacity="0.15"/>
  <rect x="146" y="230" width="30" height="16" rx="3" fill="#3b82f6" opacity="0.3"/>
  <rect x="148" y="202" width="8" height="20" rx="2" fill="#3b82f6" opacity="0.4"/>
  <rect x="166" y="202" width="8" height="20" rx="2" fill="#3b82f6" opacity="0.3"/>
  <!-- Lever -->
  <rect x="176" y="165" width="6" height="12" rx="3" fill="#3b82f6" opacity="0.4"/>
  <circle cx="179" cy="162" r="4" fill="#3b82f6" opacity="0.5"/>
  <!-- Text: MC -->
  <text x="256" y="100" font-family="system-ui, sans-serif" font-size="80" font-weight="bold" text-anchor="middle" fill="white">
    <tspan fill="#60a5fa">M</tspan>ine<tspan fill="#3b82f6">C</tspan>ontrol
  </text>
  <!-- OS subscript -->
  <text x="256" y="135" font-family="system-ui, sans-serif" font-size="28" font-weight="600" text-anchor="middle" fill="#3b82f6" opacity="0.8">OS</text>
</svg>
